# xmcd
#
# Track frame offsets:
#	150
#	68338
#	87793
#	97535
#	110450
#	138725
#	145393
#	181190
#	214438
#	244363
#
# Disc length: 3985 seconds
#
# Revision: 1
# Processed by: cddbd v1.5.1PL0 Copyright (c) Steve Scherf et al.
# Submitted via: CDex 1.50Beta5
#
DISCID=890f8f0a
DTITLE=デュトワ指揮モントリオール交響楽団 - ラヴェル/管弦楽曲全集 Disc 2
DYEAR=1900
DGENRE=Classical
TTITLE0=ラヴェル/ボレロ
TTITLE1=ラヴェル/スペイン狂詩曲1
TTITLE2=ラヴェル/スペイン狂詩曲2
TTITLE3=ラヴェル/スペイン狂詩曲3
TTITLE4=ラヴェル/スペイン狂詩曲4
TTITLE5=ラヴェル/バレエ音楽「ジャンヌの扇」よりファンファーレ
TTITLE6=ラヴェル/海原の小舟
TTITLE7=ラヴェル/道化師の朝の歌
TTITLE8=ラヴェル/古風なメヌエット
TTITLE9=ラヴェル/ラ・ヴァルス
EXTD=
EXTT0=
EXTT1=
EXTT2=
EXTT3=
EXTT4=
EXTT5=
EXTT6=
EXTT7=
EXTT8=
EXTT9=
PLAYORDER=
